PathFileType	4	(X/Y/Z)	OpenSim_Sub01_CSBaseline_Accel.trc
DataRate	CameraRate	NumFrames	NumMarkers	Units	OrigDataRate	OrigDataStartFrame	OrigNumFrames
100	100	20	8	m	100	1488	5950
Frame#	Time	torso_imu_offset_imu	pelvis_imu_offset_imu	tibia_r_imu_offset_imu	femur_r_imu_offset_imu	tibia_l_imu_offset_imu	femur_l_imu_offset_imu	toes_r_imu_offset_imu	toes_l_imu_offset_imu
				X1	Y1	Z1	X2	Y2	Z2	X3	Y3	Z3	X4	Y4	Z4	X5	Y5	Z5	X6	Y6	Z6	X7	Y7	Z7	X8		Y8	Z8	

1488	14.87000000	10.33369721	-1.94597275	6.03486102	10.56723545	-1.66542341	3.18509662	6.32696309	6.35655593	-1.44641136	7.06159738	11.40041371	4.02140828	14.24595552	1.77443441	0.57750372	10.01958847	0.73500577	-0.79918847	5.24388505	-2.93154476	8.42235876	8.28427277	3.31730292	11.17546300
1489	14.88000000	9.92481239	-2.22693604	5.80923813	10.07079086	-1.98822284	3.69925400	7.06611709	4.21381144	-1.28479172	6.99126153	11.42472277	4.08583362	13.59436728	1.29225634	0.56463504	9.84880956	-0.03947264	-0.53163315	5.57997889	-2.68571604	8.61273727	11.22902150	3.80452855	12.24329985
1490	14.89000000	9.54076758	-2.45744686	5.72300805	9.62697338	-1.93891029	4.30001832	9.13406306	2.93617185	-0.86549802	7.80630301	7.85053727	1.56826464	13.28652517	0.51724978	0.56832005	10.13202601	-0.56214023	-0.33699788	5.83612794	-2.04403772	8.49404561	14.75567400	4.04249503	13.43471010
1491	14.90000000	9.19422509	-2.63098533	5.62746723	9.20772401	-1.53165832	4.79746352	10.99068110	2.22634993	-0.14664382	9.25311693	3.11383121	-0.87543606	12.99089166	-0.63992858	1.04897025	10.30486212	-1.01347153	-0.32375115	5.97369515	-1.41077662	8.38648490	17.50953692	3.57668626	13.84945721
1492	14.91000000	8.89660191	-2.74278530	5.43716857	8.80737200	-0.83148010	5.05993136	11.66631935	1.82415775	0.75194847	10.91094873	-0.80004374	-1.57380032	12.41068911	-2.24606315	2.03970440	10.09359165	-1.46406870	-0.52673059	5.97853160	-1.05762930	8.47564341	18.51864174	2.46697525	13.31576536
1493	14.92000000	8.65700631	-2.79195256	5.21120712	8.47167577	-0.01505757	5.08657508	11.49376741	1.57128747	1.34963604	11.99326649	-2.96004136	-1.10888594	11.33638399	-4.31510834	2.61314394	9.88490729	-1.73358740	-0.81647767	5.88220538	-0.95310118	8.63389998	17.68401018	1.92601695	13.29854237
1494	14.93000000	8.48766708	-2.77879958	5.02364413	8.25404873	0.73490802	4.90119249	10.96134495	1.34934056	1.17980273	11.76797393	-2.73062697	-0.33728048	9.60871898	-6.81130745	1.83600877	10.11697295	-1.63157075	-1.04756431	5.72414594	-1.02843404	8.70304151	15.09283942	3.15654724	15.26095830
1495	14.94000000	8.43625264	-2.71068755	4.90114211	8.21509197	1.32955948	4.59927823	10.34368532	1.30961528	0.42465095	10.57588401	-1.05430348	0.19813284	7.46560157	-9.25950074	0.05576714	10.83681350	-1.21369913	-1.13919632	5.56108057	-1.25368749	8.64654313	11.53489173	5.64863493	18.36203708
1496	14.95000000	8.57103308	-2.59908544	4.84243942	8.41922699	1.73549830	4.31839091	9.78930895	1.76092099	-0.35191967	9.38908620	0.19951100	0.14082173	5.37869482	-10.92670870	-1.62599260	11.86034775	-0.68056382	-1.04895906	5.45976492	-1.62160815	8.49972134	8.21194453	7.88376111	20.40583357
1497	14.96000000	8.89570860	-2.44478333	4.85408990	8.84189811	1.94033531	4.14715980	9.43463040	2.67587233	-0.80810580	8.83117855	0.00634089	-0.59152661	3.70600373	-11.37433755	-2.40588218	12.92525780	-0.17169778	-0.78771008	5.44969340	-2.07999806	8.30981240	5.80948476	8.71066672	20.10176941
1498	14.97000000	9.26931261	-2.22462543	4.96089102	9.25990749	1.97695946	4.06382665	9.39268969	3.27240100	-1.10866822	8.72997618	-0.74626491	-1.47474193	2.54519056	-10.82808219	-2.16762560	13.60132334	0.31378260	-0.48406481	5.47693121	-2.47572151	8.14857698	3.84913496	7.82663431	18.21845795
1499	14.98000000	9.54200410	-1.91654983	5.18338506	9.44648774	1.88496449	4.03033901	9.74359865	2.77307844	-1.45876535	8.81721286	-1.00435035	-1.95097971	1.93587218	-9.60627849	-0.93533476	13.48087536	0.78931060	-0.26584034	5.48291065	-2.65777622	8.08222955	1.77198700	5.17445345	15.77121906
1500	14.99000000	9.67440405	-1.54323653	5.47270125	9.41549408	1.70991486	3.99462424	10.26018234	1.50255589	-1.77301000	8.94430719	-0.66685224	-1.96192258	1.68208837	-8.05573854	0.77736262	12.62359048	1.20173622	-0.08812176	5.47777337	-2.63817944	8.08547082	-0.18648751	2.04614579	13.44588786
1501	15.00000000	9.69224775	-1.15376318	5.73916155	9.32249736	1.50093267	3.89650571	10.53491532	0.43386784	-1.79530625	9.03349448	-0.19404900	-1.74356480	1.44959796	-6.53963262	2.16966415	11.36490893	1.45892728	0.19546532	5.51203205	-2.52497236	8.07920844	-1.32388501	0.52407046	11.73290532
1502	15.01000000	9.61100384	-0.79803935	5.92281622	9.27426237	1.31465248	3.71113555	10.35556417	0.17009414	-1.41524362	9.05224379	0.11909951	-1.45458712	1.05012059	-5.32780595	2.77907183	10.05544328	1.53151193	0.63867468	5.60198430	-2.39587889	8.02502196	-1.29415723	1.50581409	10.90484255
1503	15.02000000	9.42135556	-0.52706956	6.03122412	9.26456768	1.22436847	3.49272754	9.95084547	0.47014801	-0.85239782	9.06691060	0.36269190	-1.07267566	0.62504143	-4.48139869	2.90621725	9.07170698	1.53127745	1.08567260	5.68642047	-2.25820773	7.97679213	-0.55984583	3.22262593	10.75377953
1504	15.03000000	9.11650433	-0.38778990	6.08102910	9.26783155	1.29490695	3.30180690	9.59485583	0.99551366	-0.35545286	9.14884170	0.66624370	-0.56154380	0.35016836	-4.03559787	2.92175351	8.74789697	1.57704700	1.36634355	5.69922680	-2.11255120	7.99385383	0.33237263	3.72662776	11.00792638
1505	15.04000000	8.75026993	-0.38360545	6.08836558	9.21642936	1.48040392	3.15361851	9.41423572	1.58103186	-0.01265326	9.28278274	1.02832590	0.00652168	0.29618196	-4.04919045	2.85322901	8.94517118	1.66310021	1.45589479	5.63192767	-1.98852413	8.06291685	1.09672615	2.94517888	11.40730085
1506	15.05000000	8.41211858	-0.49219620	6.06906225	9.01831970	1.66985150	3.03669875	9.44827846	2.16367330	0.18241577	9.40248137	1.37027225	0.49529192	0.47162782	-4.59398323	2.52646218	9.24616217	1.71039004	1.41520512	5.51013576	-1.93273361	8.12790977	1.60205898	1.91015903	11.69947080
1507	15.06000000	8.16757409	-0.68154872	6.03784387	8.66303941	1.78478287	2.94019669	9.65968383	2.65179466	0.23921624	9.46053513	1.61517975	0.79112284	0.85975452	-5.55056290	1.90952941	9.34485400	1.67014701	1.29331401	5.37790432	-1.96457014	8.14570925	1.86686517	1.29268192	11.75594739
